<?xml version="1.0" encoding="UTF-8" standalone="no"?>
<!-- Created with Inkscape (http://www.inkscape.org/) -->

<svg
   width="1000"
   height="700"
   viewBox="0 0 264.58333 185.20833"
   version="1.1"
   id="svg26809"
   inkscape:version="1.2 (dc2aedaf03, 2022-05-15)"
   sodipodi:docname="banner-servicios.svg"
   xml:space="preserve"
   inkscape:export-filename="banner-servicios.png"
   inkscape:export-xdpi="96"
   inkscape:export-ydpi="96"
   xmlns:inkscape="http://www.inkscape.org/namespaces/inkscape"
   xmlns:sodipodi="http://sodipodi.sourceforge.net/DTD/sodipodi-0.dtd"
   xmlns="http://www.w3.org/2000/svg"
   xmlns:svg="http://www.w3.org/2000/svg"><sodipodi:namedview
     id="namedview26811"
     pagecolor="#505050"
     bordercolor="#eeeeee"
     borderopacity="1"
     inkscape:showpageshadow="0"
     inkscape:pageopacity="0"
     inkscape:pagecheckerboard="0"
     inkscape:deskcolor="#505050"
     inkscape:document-units="mm"
     showgrid="false"
     inkscape:zoom="0.30868056"
     inkscape:cx="118.24522"
     inkscape:cy="456.7829"
     inkscape:window-width="1600"
     inkscape:window-height="847"
     inkscape:window-x="-8"
     inkscape:window-y="-8"
     inkscape:window-maximized="1"
     inkscape:current-layer="layer1" /><defs
     id="defs26806"><rect
       x="150.64117"
       y="404.94937"
       width="874.92432"
       height="97.025055"
       id="rect26984" /><rect
       x="150.64117"
       y="404.94937"
       width="803.91138"
       height="99.315796"
       id="rect27042" /><rect
       x="150.64117"
       y="404.94937"
       width="487.78928"
       height="87.862091"
       id="rect27048" /><rect
       x="150.64117"
       y="404.94937"
       width="641.26886"
       height="90.152832"
       id="rect27104" /><rect
       x="150.64117"
       y="404.94937"
       width="416.77634"
       height="94.734306"
       id="rect27110" /></defs><g
     inkscape:label="Capa 1"
     inkscape:groupmode="layer"
     id="layer1"><g
       id="g2815"
       transform="translate(-23.86146,-8.92543)"><text
         xml:space="preserve"
         transform="matrix(0.26458333,0,0,0.26458333,18.384487,52.272909)"
         id="text26982"
         style="font-style:normal;font-weight:normal;font-size:76px;line-height:1.25;font-family:sans-serif;white-space:pre;shape-inside:url(#rect26984);display:inline;fill:#000000;fill-opacity:1;stroke:none"><tspan
           x="150.64062"
           y="474.80033"
           id="tspan2999"><tspan
             style="font-weight:500;font-family:Montserrat;-inkscape-font-specification:'Montserrat Medium';fill:#ffffff"
             id="tspan2997">Seguridad Electrónica</tspan></tspan></text><text
         xml:space="preserve"
         transform="matrix(0.26458333,0,0,0.26458333,19.128496,16.889213)"
         id="text27040"
         style="font-style:normal;font-weight:normal;font-size:76px;line-height:1.25;font-family:sans-serif;white-space:pre;shape-inside:url(#rect27042);display:inline;fill:#000000;fill-opacity:1;stroke:none"><tspan
           x="150.64062"
           y="474.80033"
           id="tspan3003"><tspan
             style="font-weight:500;font-family:Montserrat;-inkscape-font-specification:'Montserrat Medium';fill:#ffffff"
             id="tspan3001">Telecomunicaciones</tspan></tspan></text><text
         xml:space="preserve"
         transform="matrix(0.26458333,0,0,0.26458333,17.097554,-53.878181)"
         id="text27046"
         style="font-style:normal;font-weight:normal;font-size:76px;line-height:1.25;font-family:sans-serif;white-space:pre;shape-inside:url(#rect27048);display:inline;fill:#000000;fill-opacity:1;stroke:none"><tspan
           x="150.64062"
           y="474.80033"
           id="tspan3007"><tspan
             style="font-weight:500;font-family:Montserrat;-inkscape-font-specification:'Montserrat Medium';fill:#ffffff"
             id="tspan3005">Electricidad</tspan></tspan></text><text
         xml:space="preserve"
         transform="matrix(0.26458333,0,0,0.26458333,19.229037,-18.494484)"
         id="text27102"
         style="font-style:normal;font-weight:normal;font-size:76px;line-height:1.25;font-family:sans-serif;white-space:pre;shape-inside:url(#rect27104);display:inline;fill:#000000;fill-opacity:1;stroke:none"><tspan
           x="150.64062"
           y="474.80033"
           id="tspan3011"><tspan
             style="font-weight:500;font-family:Montserrat;-inkscape-font-specification:'Montserrat Medium';fill:#ffffff"
             id="tspan3009">Automatización</tspan></tspan></text><text
         xml:space="preserve"
         transform="matrix(0.26458333,0,0,0.26458333,17.097554,-89.261877)"
         id="text27108"
         style="font-style:normal;font-weight:normal;font-size:76px;line-height:1.25;font-family:sans-serif;white-space:pre;shape-inside:url(#rect27110);display:inline;fill:#000000;fill-opacity:1;stroke:none"><tspan
           x="150.64062"
           y="474.80033"
           id="tspan3015"><tspan
             style="font-weight:500;font-family:Montserrat;-inkscape-font-specification:'Montserrat Medium';fill:#ffffff"
             id="tspan3013">Domótica</tspan></tspan></text><path
         d="m 37.343931,36.811695 h -4.477613 q -0.291047,0 -0.481344,-0.190303 -0.190298,-0.190283 -0.190298,-0.481333 v -6.492541 h -1.813433 q -0.223882,0 -0.313433,-0.21269 -0.08956,-0.21269 0.08956,-0.369399 l 7.85821,-7.074639 q 0.179104,-0.179095 0.44776,-0.179095 0.268657,0 0.447762,0.179095 l 4.029851,3.559712 v -1.947768 q 0,-0.29105 0.190297,-0.481331 0.190299,-0.190305 0.481345,-0.190305 h 0.447761 q 0.291045,0 0.481343,0.190305 0.190298,0.190281 0.190298,0.481331 v 3.604486 l 2.037315,1.858209 q 0.179103,0.156709 0.100746,0.369399 -0.07836,0.21269 -0.324626,0.21269 h -1.81343 v 6.492541 q 0,0.29105 -0.190299,0.481333 -0.190298,0.190303 -0.481344,0.190303 h -4.477611 v -5.373137 h -2.238806 z m -3.80597,-1.343282 h 2.462685 v -4.701491 q 0,-0.291039 0.190299,-0.481343 0.190299,-0.190303 0.481344,-0.190303 h 3.582089 q 0.291045,0 0.481343,0.190303 0.190299,0.190304 0.190299,0.481343 v 4.701491 h 2.462686 v -7.634321 l -4.925373,-4.477624 -4.925372,4.477624 z m 3.022387,-7.835823 h 3.805969 q 0,-0.738807 -0.570894,-1.220159 -0.570896,-0.481322 -1.33209,-0.481322 -0.761193,0 -1.33209,0.481322 -0.570895,0.481352 -0.570895,1.220159 z m 0.111947,2.462686 h 3.58209 z"
         id="path341"
         style="fill:#42c2ff;fill-opacity:1;stroke-width:0.447761" /><path
         d="m 32.090936,143.46279 q -0.531249,0 -0.903125,-0.37188 -0.371874,-0.37187 -0.371874,-0.90312 v -3.18751 q 0,-0.53124 0.371874,-0.90312 0.371876,-0.37188 0.903125,-0.37188 h 1.275 v -2.12498 q 0,-0.53126 0.371873,-0.90313 0.371876,-0.37187 0.903125,-0.37187 h 3.187498 v -2.125 h -1.274999 q -0.531249,0 -0.903125,-0.37188 -0.371874,-0.37188 -0.371874,-0.90312 v -3.18751 q 0,-0.53125 0.371874,-0.90312 0.371876,-0.37188 0.903125,-0.37188 h 3.824997 q 0.53125,0 0.903123,0.37188 0.371876,0.37187 0.371876,0.90312 v 3.18751 q 0,0.53124 -0.371876,0.90312 -0.371873,0.37188 -0.903123,0.37188 h -1.274998 v 2.125 h 3.187497 q 0.531249,0 0.903123,0.37187 0.371876,0.37187 0.371876,0.90313 v 2.12498 h 1.275 q 0.531249,0 0.903125,0.37188 0.371873,0.37188 0.371873,0.90312 v 3.18751 q 0,0.53125 -0.371873,0.90312 -0.371876,0.37188 -0.903125,0.37188 H 41.01593 q -0.53125,0 -0.903125,-0.37188 -0.371874,-0.37187 -0.371874,-0.90312 v -3.18751 q 0,-0.53124 0.371874,-0.90312 0.371875,-0.37188 0.903125,-0.37188 h 1.274999 v -2.12498 h -7.649995 v 2.12498 h 1.274999 q 0.53125,0 0.903124,0.37188 0.371876,0.37188 0.371876,0.90312 v 3.18751 q 0,0.53125 -0.371876,0.90312 -0.371874,0.37188 -0.903124,0.37188 z m 4.462497,-12.53749 h 3.824997 v -3.18751 h -3.824997 z m -4.462497,11.26249 h 3.824997 v -3.18751 h -3.824997 z m 8.924994,0 h 3.824998 v -3.18751 H 41.01593 Z M 38.465932,130.9253 Z m -2.549999,8.07498 z m 5.099997,0 z"
         id="path452"
         style="fill:#42c2ff;fill-opacity:1;stroke-width:0.424999" /><path
         d="m 38.465931,72.695391 q -0.707465,0 -1.19645,-0.48898 -0.488983,-0.48899 -0.488983,-1.19645 h 3.370868 q 0,0.70746 -0.488986,1.19645 -0.488982,0.48898 -1.196449,0.48898 z m -2.746633,-2.97552 q -0.270502,0 -0.447368,-0.17687 -0.176867,-0.17685 -0.176867,-0.44736 0,-0.2705 0.176867,-0.44737 0.176866,-0.17687 0.447368,-0.17687 h 5.493266 q 0.270502,0 0.447368,0.17687 0.176867,0.17687 0.176867,0.44737 0,0.27051 -0.176867,0.44736 -0.176865,0.17687 -0.447368,0.17687 z m -0.520196,-2.51775 q -1.373316,-0.89473 -2.174417,-2.23683 -0.801102,-1.3421 -0.801102,-3.02755 0,-2.53855 1.851897,-4.39045 1.851897,-1.8519 4.390451,-1.8519 2.538556,0 4.390452,1.8519 1.851896,1.85191 1.851896,4.39045 0,1.68545 -0.790697,3.02755 -0.790697,1.3421 -2.184822,2.23683 z m 0.457773,-1.24847 h 5.638921 q 0.998776,-0.66585 1.581395,-1.72705 0.582618,-1.06121 0.582618,-2.28886 0,-2.05996 -1.466951,-3.52692 -1.466951,-1.46696 -3.526927,-1.46696 -2.059974,0 -3.526925,1.46696 -1.466953,1.46696 -1.466953,3.52692 0,1.22765 0.582619,2.28886 0.58262,1.0612 1.602203,1.72705 z m 2.809056,0 z"
         id="path566"
         style="fill:#42c2ff;fill-opacity:1;stroke-width:0.416156" /><path
         d="m 38.465931,180.79632 q -0.128775,0 -0.257566,-0.0114 -0.128775,-0.0114 -0.236102,-0.0537 -2.811762,-0.92298 -4.59326,-3.56302 -1.781496,-2.64006 -1.781496,-5.77378 v -4.20622 q 0,-0.4078 0.236101,-0.74049 0.236102,-0.33268 0.600987,-0.48294 l 5.580595,-2.08199 q 0.236102,-0.0858 0.450741,-0.0858 0.214639,0 0.45074,0.0858 l 5.580596,2.08199 q 0.364885,0.15024 0.600986,0.48294 0.236102,0.33269 0.236102,0.74049 v 4.20692 q 0,3.13372 -1.781498,5.77378 -1.781496,2.64004 -4.593258,3.56299 -0.107325,0.043 -0.236102,0.0537 -0.128775,0.0114 -0.257566,0.0114 z m 0,-1.24491 q 2.275166,-0.75123 3.766902,-2.75809 1.491736,-2.00687 1.749302,-4.49667 h -5.516204 v -7.1904 l -5.580594,2.08199 v 4.20692 q 0,0.25757 0.01071,0.44001 0.01071,0.18245 0.05367,0.46148 h 5.516204 z"
         id="path623"
         style="fill:#42c2ff;fill-opacity:1;stroke-width:0.429276" /><path
         d="m 39.865919,108.07909 h -2.804977 q -0.233749,0 -0.414372,-0.14874 -0.180624,-0.14874 -0.223123,-0.38249 l -0.339998,-2.14624 q -0.403746,-0.14874 -0.849992,-0.40374 -0.446247,-0.255 -0.786243,-0.53125 l -1.976235,0.91374 q -0.233748,0.10617 -0.467497,0.0318 -0.233746,-0.0744 -0.361245,-0.30813 l -1.402489,-2.48623 q -0.127491,-0.21249 -0.06375,-0.44624 0.06375,-0.23375 0.254998,-0.3825 l 1.827484,-1.33873 q -0.0425,-0.19126 -0.05312,-0.43563 -0.0106,-0.244382 -0.0106,-0.435622 0,-0.19124 0.0106,-0.43562 0.0106,-0.24437 0.05312,-0.43563 l -1.827478,-1.33873 q -0.191248,-0.14874 -0.254998,-0.3825 -0.06375,-0.23375 0.06375,-0.44624 l 1.402488,-2.48623 q 0.127507,-0.23375 0.361246,-0.30813 0.233748,-0.0744 0.467497,0.0318 l 1.976234,0.91374 q 0.339996,-0.27625 0.786243,-0.53125 0.446246,-0.255 0.849992,-0.38249 l 0.339998,-2.16749 q 0.0425,-0.23375 0.223123,-0.38249 0.180624,-0.14874 0.414372,-0.14874 h 2.804977 q 0.233748,0 0.414372,0.14874 0.180624,0.14874 0.223123,0.38249 l 0.339998,2.14624 q 0.403746,0.14874 0.860617,0.39312 0.456871,0.24437 0.775619,0.54187 l 1.976233,-0.91374 q 0.233749,-0.10617 0.467497,-0.0318 0.233749,0.0744 0.361246,0.30813 l 1.402488,2.46498 q 0.127491,0.21249 0.07437,0.45687 -0.05312,0.24437 -0.265623,0.39312 l -1.827485,1.29624 q 0.0425,0.2125 0.05312,0.45686 0.0106,0.24438 0.0106,0.45688 0,0.2125 -0.0106,0.446242 -0.0106,0.23375 -0.05312,0.44624 l 1.827485,1.3175 q 0.191248,0.14874 0.254998,0.3825 0.06375,0.23375 -0.06375,0.44624 l -1.402488,2.48623 q -0.127507,0.23375 -0.361246,0.30813 -0.233748,0.0744 -0.467497,-0.0318 l -1.976225,-0.91374 q -0.339997,0.27625 -0.775619,0.54187 -0.435621,0.26563 -0.860617,0.39312 l -0.339998,2.14624 q -0.0425,0.23375 -0.223123,0.38249 -0.180624,0.14874 -0.414372,0.14874 z m -1.402489,-5.73746 q 1.147491,0 1.954984,-0.8075 0.807494,-0.80749 0.807494,-1.954982 0,-1.14749 -0.807494,-1.95497 -0.807493,-0.8075 -1.954984,-0.8075 -1.147491,0 -1.954983,0.8075 -0.807495,0.80748 -0.807495,1.95497 0,1.147492 0.807495,1.954982 0.807492,0.8075 1.954983,0.8075 z m 0,-1.27499 q -0.616245,0 -1.051867,-0.43563 -0.435621,-0.4356 -0.435621,-1.051862 0,-0.61625 0.435621,-1.05186 0.435622,-0.43562 1.051867,-0.43562 0.616245,0 1.051867,0.43562 0.435621,0.43561 0.435621,1.05186 0,0.616262 -0.435621,1.051862 -0.435622,0.43563 -1.051867,0.43563 z m 0,-1.487492 z m -0.934992,7.224952 h 1.869984 l 0.297499,-2.37999 q 0.701243,-0.16999 1.328114,-0.53124 0.626869,-0.36126 1.136865,-0.87125 l 2.252482,0.9775 0.849992,-1.52998 -1.997483,-1.46625 q 0.08501,-0.36124 0.138125,-0.71186 0.05312,-0.350622 0.05312,-0.711882 0,-0.36125 -0.0425,-0.71187 -0.0425,-0.35062 -0.148742,-0.71186 l 1.997483,-1.46625 -0.849992,-1.52998 -2.252482,0.97748 q -0.488746,-0.55248 -1.104992,-0.92435 -0.616243,-0.37187 -1.359987,-0.47813 l -0.297499,-2.37998 h -1.869984 l -0.297498,2.37998 q -0.722493,0.14875 -1.349364,0.51 -0.626869,0.36125 -1.115616,0.89248 l -2.252482,-0.97748 -0.849992,1.52998 1.997483,1.46625 q -0.085,0.36124 -0.138125,0.71186 -0.05312,0.35062 -0.05312,0.71187 0,0.36126 0.05312,0.711882 0.05312,0.35062 0.138125,0.71186 l -1.997484,1.46625 0.849992,1.52998 2.252482,-0.9775 q 0.509996,0.50999 1.136865,0.87125 0.626871,0.36125 1.328114,0.53124 z"
         id="path664"
         style="fill:#42c2ff;fill-opacity:1;stroke-width:0.424996" /></g></g></svg>
