<?xml version="1.0" encoding="UTF-8" standalone="no"?>
<!-- Created with Inkscape (http://www.inkscape.org/) -->

<svg
   width="57"
   height="57"
   viewBox="0 0 15.081249 15.08125"
   version="1.1"
   id="svg25448"
   inkscape:version="1.2 (dc2aedaf03, 2022-05-15)"
   sodipodi:docname="call.svg"
   xmlns:inkscape="http://www.inkscape.org/namespaces/inkscape"
   xmlns:sodipodi="http://sodipodi.sourceforge.net/DTD/sodipodi-0.dtd"
   xmlns="http://www.w3.org/2000/svg"
   xmlns:svg="http://www.w3.org/2000/svg">
  <sodipodi:namedview
     id="namedview25450"
     pagecolor="#505050"
     bordercolor="#eeeeee"
     borderopacity="1"
     inkscape:showpageshadow="0"
     inkscape:pageopacity="0"
     inkscape:pagecheckerboard="0"
     inkscape:deskcolor="#505050"
     inkscape:document-units="px"
     showgrid="false"
     inkscape:zoom="9.4752306"
     inkscape:cx="49.86686"
     inkscape:cy="48.125478"
     inkscape:window-width="1600"
     inkscape:window-height="847"
     inkscape:window-x="-8"
     inkscape:window-y="-8"
     inkscape:window-maximized="1"
     inkscape:current-layer="layer1" />
  <defs
     id="defs25445" />
  <g
     inkscape:label="Capa 1"
     inkscape:groupmode="layer"
     id="layer1">
    <g
       id="g21461"
       transform="matrix(1.2665473,0,0,1.2665852,-426.64984,-407.14622)"
       style="fill:#ffffff;fill-opacity:1">
      <path
         d="m 343.1829,329.461 h -0.7373 c -0.22401,0 -0.4057,0.18168 -0.4057,0.40605 0,0.22401 0.18169,0.40569 0.4057,0.40569 h 0.7373 c 0.22402,0 0.40571,-0.18168 0.40571,-0.40569 0,-0.22437 -0.18168,-0.40605 -0.40571,-0.40605"
         style="fill:#ffffff;fill-opacity:1;fill-rule:nonzero;stroke:none;stroke-width:0.0352778"
         id="path21457" />
      <path
         d="m 345.17169,328.89449 v 1.12465 c 0,0.46708 -0.37853,0.84561 -0.84561,0.84561 h -2.99825 c -0.46673,0 -0.84561,-0.37853 -0.84561,-0.84561 v -1.03434 -0.0903 -4.10281 c 0,-0.46708 0.37888,-0.84561 0.84561,-0.84561 h 2.99825 c 0.46708,0 0.84561,0.37853 0.84561,0.84561 z m -2.35726,-7.33814 c -3.23038,0 -5.84941,2.61867 -5.84941,5.84906 0,3.23039 2.61903,5.84906 5.84941,5.84906 3.23039,0 5.84906,-2.61867 5.84906,-5.84906 0,-3.23039 -2.61867,-5.84906 -5.84906,-5.84906"
         style="fill:#ffffff;fill-opacity:1;fill-rule:nonzero;stroke:none;stroke-width:0.0352778"
         id="path21459" />
    </g>
  </g>
</svg>
