<?xml version="1.0" encoding="UTF-8" standalone="no"?>
<!-- Created with Inkscape (http://www.inkscape.org/) -->

<svg
   width="57"
   height="57"
   viewBox="0 0 15.081249 15.08125"
   version="1.1"
   id="svg25448"
   inkscape:version="1.2 (dc2aedaf03, 2022-05-15)"
   sodipodi:docname="mail.svg"
   xmlns:inkscape="http://www.inkscape.org/namespaces/inkscape"
   xmlns:sodipodi="http://sodipodi.sourceforge.net/DTD/sodipodi-0.dtd"
   xmlns="http://www.w3.org/2000/svg"
   xmlns:svg="http://www.w3.org/2000/svg">
  <sodipodi:namedview
     id="namedview25450"
     pagecolor="#505050"
     bordercolor="#eeeeee"
     borderopacity="1"
     inkscape:showpageshadow="0"
     inkscape:pageopacity="0"
     inkscape:pagecheckerboard="0"
     inkscape:deskcolor="#505050"
     inkscape:document-units="px"
     showgrid="false"
     inkscape:zoom="1.675"
     inkscape:cx="-35.522389"
     inkscape:cy="10.149254"
     inkscape:window-width="1600"
     inkscape:window-height="847"
     inkscape:window-x="-8"
     inkscape:window-y="-8"
     inkscape:window-maximized="1"
     inkscape:current-layer="layer1" />
  <defs
     id="defs25445">
    <clipPath
       clipPathUnits="userSpaceOnUse"
       id="clipPath11141">
      <path
         d="m 6958.77,1363.81 c -2.97,-7.22 -10.36,-11.86 -17.85,-13.28 -7.15,-1.35 -13.05,0.92 -19.68,3.11 -5.9,1.95 -11.61,4.8 -16.9,8.04 -10.6,6.49 -19.76,15.18 -27.11,25.18 -2.25,3.05 -4.34,6.23 -6.26,9.5 -2.54,4.34 -4.8,8.91 -5.98,13.8 -0.49,2.03 -0.75,4.13 -0.78,6.24 -0.08,7.41 2.75,14.9 8.61,19.67 3.39,2.76 8.42,3.97 12.23,1.82 4.14,-2.35 6.3,-8.25 8.22,-12.39 1.5,-3.24 3.21,-7.49 2.59,-11.13 -0.62,-3.64 -3.5,-6.71 -5.8,-9.41 -1.55,-1.82 -1.78,-3.37 -0.49,-5.34 7.59,-12.65 18.13,-21.83 31.89,-27.31 1.87,-0.76 3.32,-0.52 4.54,0.98 2.38,2.93 4.72,8.67 8.38,10.17 4.78,1.95 10.05,-0.75 14.11,-3.18 3.77,-2.26 10.09,-5.03 11.11,-9.7 0.49,-2.25 0.05,-4.63 -0.83,-6.77 z m -46.93,110.06 c -44.05,0 -79.89,-35.84 -79.89,-79.89 0,-14.55 4.04,-28.87 11.69,-41.42 l 2.07,-3.4 -7.98,-29.79 29.95,8.03 3.38,-2.02 c 12.4,-7.38 26.5,-11.29 40.78,-11.29 44.05,0 79.89,35.84 79.89,79.89 0,44.05 -35.84,79.89 -79.89,79.89 z m 0,-178.4 c -16.3,0 -32.41,4.11 -46.82,11.93 l -53.63,-14.36 14.3,53.35 c -8.1,14.61 -12.36,30.98 -12.36,47.59 0,54.32 44.19,98.51 98.51,98.51 54.32,0 98.52,-44.19 98.52,-98.51 0,-54.32 -44.2,-98.51 -98.52,-98.51 z m -3.43,258.18 c -91.61,0 -165.88,-74.26 -165.88,-165.88 0,-91.61 74.27,-165.87 165.88,-165.87 91.61,0 165.88,74.26 165.88,165.87 0,91.62 -74.27,165.88 -165.88,165.88 z"
         id="path11139" />
    </clipPath>
    <clipPath
       clipPathUnits="userSpaceOnUse"
       id="clipPath11141-7">
      <path
         d="m 6958.77,1363.81 c -2.97,-7.22 -10.36,-11.86 -17.85,-13.28 -7.15,-1.35 -13.05,0.92 -19.68,3.11 -5.9,1.95 -11.61,4.8 -16.9,8.04 -10.6,6.49 -19.76,15.18 -27.11,25.18 -2.25,3.05 -4.34,6.23 -6.26,9.5 -2.54,4.34 -4.8,8.91 -5.98,13.8 -0.49,2.03 -0.75,4.13 -0.78,6.24 -0.08,7.41 2.75,14.9 8.61,19.67 3.39,2.76 8.42,3.97 12.23,1.82 4.14,-2.35 6.3,-8.25 8.22,-12.39 1.5,-3.24 3.21,-7.49 2.59,-11.13 -0.62,-3.64 -3.5,-6.71 -5.8,-9.41 -1.55,-1.82 -1.78,-3.37 -0.49,-5.34 7.59,-12.65 18.13,-21.83 31.89,-27.31 1.87,-0.76 3.32,-0.52 4.54,0.98 2.38,2.93 4.72,8.67 8.38,10.17 4.78,1.95 10.05,-0.75 14.11,-3.18 3.77,-2.26 10.09,-5.03 11.11,-9.7 0.49,-2.25 0.05,-4.63 -0.83,-6.77 z m -46.93,110.06 c -44.05,0 -79.89,-35.84 -79.89,-79.89 0,-14.55 4.04,-28.87 11.69,-41.42 l 2.07,-3.4 -7.98,-29.79 29.95,8.03 3.38,-2.02 c 12.4,-7.38 26.5,-11.29 40.78,-11.29 44.05,0 79.89,35.84 79.89,79.89 0,44.05 -35.84,79.89 -79.89,79.89 z m 0,-178.4 c -16.3,0 -32.41,4.11 -46.82,11.93 l -53.63,-14.36 14.3,53.35 c -8.1,14.61 -12.36,30.98 -12.36,47.59 0,54.32 44.19,98.51 98.51,98.51 54.32,0 98.52,-44.19 98.52,-98.51 0,-54.32 -44.2,-98.51 -98.52,-98.51 z m -3.43,258.18 c -91.61,0 -165.88,-74.26 -165.88,-165.88 0,-91.61 74.27,-165.87 165.88,-165.87 91.61,0 165.88,74.26 165.88,165.87 0,91.62 -74.27,165.88 -165.88,165.88 z"
         id="path11139-8" />
    </clipPath>
  </defs>
  <g
     inkscape:label="Capa 1"
     inkscape:groupmode="layer"
     id="layer1">
    <path
       d="m 11.873915,9.0768019 c 0,0.9932941 -0.805612,1.7984621 -1.798906,1.7984621 H 5.0062507 c -0.993295,0 -1.798471,-0.805168 -1.798471,-1.7984621 V 5.2283062 c 0,-0.142966 0.02949,-0.2788126 0.0822,-0.4025836 l 2.995502,3.3989877 c 0.317699,0.3601413 0.775245,0.567019 1.255579,0.567019 0.47989,-4.371e-4 0.937443,-0.2068777 1.254683,-0.567019 l 2.9593173,-3.357427 0.03341,-0.046895 c 0.05445,0.1251416 0.08537,0.2627291 0.08537,0.4079547 z M 4.2278787,4.2055414 h 6.6205903 c 0.09119,0 0.17917,0.012891 0.263181,0.035338 l -0.03393,0.031782 -2.9593023,3.3574269 c -0.148797,0.1693471 -0.354785,0.2622846 -0.579984,0.2622846 -0.225643,0 -0.431624,-0.092967 -0.580428,-0.2622846 L 3.9696627,4.2395906 c 0.08271,-0.02141 0.168903,-0.03393 0.258262,-0.03393 z m 3.312755,-4.07324974 c -4.091565,0 -7.40834204,3.31677004 -7.40834204,7.40833314 0,4.0915632 3.31677704,7.4083332 7.40834204,7.4083332 4.0915553,0 7.4083243,-3.31677 7.4083243,-7.4083332 0,-4.0915631 -3.316769,-7.40833314 -7.4083243,-7.40833314"
       style="fill:#ffffff;fill-opacity:1;fill-rule:nonzero;stroke:none;stroke-width:0.0446824"
       id="path21479" />
  </g>
</svg>
